<?xml version="1.0" encoding="utf-8"?>
<!-- Generator: Adobe Illustrator 21.0.0, SVG Export Plug-In . SVG Version: 6.00 Build 0)  -->
<svg version="1.1" id="Layer_1" xmlns="http://www.w3.org/2000/svg" xmlns:xlink="http://www.w3.org/1999/xlink" x="0px" y="0px"
	 viewBox="0 0 1366 768" style="enable-background:new 0 0 1366 768;" xml:space="preserve">
<style type="text/css">
	.st0{fill:#000000;}
</style>
<g>
	<path class="st0" d="M-509,1196.9c0-504.3,0-1008.6,0-1513c784,0,1568,0,2352,0c0,504.3,0,1008.6,0,1513
		C1059,1196.9,275,1196.9-509,1196.9z M1368.6,769.6c0.1-0.6,0.3-1.2,0.3-1.9c0-254.9,0-509.7,0-764.6c0-0.4-0.3-0.9-0.4-1.5
		c-2.3-0.7-4.7-0.4-7.1-0.4c-450.7,0-901.4,0-1352.1,0c-1.4,0-2.9-0.1-4.3,0C4.1,1.4,3.2,1.7,2.1,1.9C2,4.3,2,6.5,2,8.8
		c0,251.3,0,502.7,0,754c0,1.4-0.1,2.9,0,4.3c0,0.9,0.3,1.8,0.5,2.8c1,0.1,1.8,0.3,2.6,0.3c454,0,908.1,0,1362.1-0.1
		C1367.6,770.1,1368.1,769.8,1368.6,769.6z"/>
	<path class="st0" d="M702.7,176.8C754.9,207,807,237,858.5,266.8c0.4,0.7,0.5,0.9,0.6,1c0.1,0.1,0.1,0.3,0.1,0.5
		c0,58.2,0.1,116.4,0.1,174.6c0,1.3,0,2.6-0.1,3.8c0,0.3-0.1,0.6-0.2,0.9c0,0.1-0.1,0.3-0.5,0.9c-51.6,29.8-103.6,59.8-155.6,89.8
		c-2.6-0.8-4.6-2.2-6.6-3.3c-30.7-17.7-61.5-35.5-92.2-53.3c-12.6-7.3-25.2-14.6-37.8-21.8c-6.8-3.9-13.6-7.7-20-12.2
		c-0.8-1.9-0.5-3.8-0.5-5.7c0-16.6,0-33.3,0-49.9c0-39.7,0-79.3,0-119c0-1.8,0-3.5,0-4.8c0.9-1.9,2.3-2.3,3.5-3.1
		c20.5-11.8,41-23.7,61.5-35.5c23.3-13.4,46.5-26.9,69.8-40.3C687.8,185.4,695,181.3,702.7,176.8z M856.8,270.1
		c-5.8-3.4-11.2-6.5-16.6-9.6c-23.3-13.4-46.6-26.8-69.9-40.2c-21.3-12.3-42.7-24.5-64-36.9c-2.4-1.4-4.2-1.4-6.6,0.1
		c-5.9,3.6-11.9,7-17.8,10.4c-42.4,24.4-84.8,48.7-127.2,73.2c-5.7,3.3-5.5,1.6-5.5,9.2c0,55.5,0,111,0,166.5c0,1.6,0.1,3.2,0.1,4.4
		c2.8,1.4,5.4,2.3,7.7,3.7c19.6,11.2,39.1,22.4,58.7,33.7c27.9,16,55.7,32.1,83.5,48.1c1.2,0.7,2.5,1.3,3.9,2
		c1.5-0.8,2.9-1.5,4.3-2.3c13.4-7.7,26.9-15.5,40.3-23.2c32.3-18.6,64.6-37.2,96.9-55.7c3-1.7,5.9-3.8,9.4-4.8
		c1.8-0.5,2.8-2.1,2.8-4.1c0-1.1,0-2.2,0-3.4c0-55.3,0-110.7,0-166C856.8,273.6,856.8,272,856.8,270.1z"/>
	<path class="st0" d="M557.8,440.1c0-3.2,0-6.1,0-9c0-49.1,0-98.2,0-147.4c0-1.9,0.1-3.8,0-5.8c-0.1-2.3,1-3.8,3-5
		c5.6-3.1,11.1-6.4,16.6-9.6c28.8-16.6,57.6-33.3,86.4-49.9c10.7-6.2,21.3-12.3,32-18.4c0.9-0.5,2-0.9,3.3-1.5
		c0.4,0.9,0.8,1.5,0.9,2.2c0.2,1.3,0.1,2.6,0.1,3.8c0.1,51,0.1,102.1,0.2,153.1c0,6.6,0.6,5.6-5.2,9c-24.7,14.4-49.5,28.7-74.3,43
		c-18.4,10.7-36.8,21.3-55.2,32c-0.9,0.5-1.8,1.2-2.7,1.9c2.7,2.2,134.8,78.9,140.4,81.6c3.3-1.1,32.7-18,69.9-39.9
		c23-13.5,46.2-26.8,69.7-40.3c-0.9-0.8-1.4-1.3-2-1.7c-39.7-23-79.5-45.9-119.2-68.8c-4.3-2.5-8.6-4.9-12.9-7.4
		c-1-0.6-1.9-1.2-2.9-1.8c-1-0.7-1.5-1.6-1.6-2.8c0-1.1-0.1-2.2-0.1-3.4c-0.1-34.9-0.3-69.8-0.4-104.6c0-17.3,0-34.6,0.1-51.8
		c0-1.7-0.5-3.5,0.7-5.1c1.8,0,3.1,1.1,4.4,1.9c12.4,7.1,24.7,14.2,37,21.3c27.4,15.8,54.9,31.7,82.3,47.5c5.5,3.2,11,6.5,16.6,9.6
		c2.4,1.3,3.5,3,3.2,5.8c-0.1,0.9,0,1.9,0,2.9c0,50.6,0,101.1,0,151.7c0,0.6,0,1.3,0,1.9c0,5.4,0,5.4-4.5,8
		c-21,12.2-42.1,24.4-63.1,36.6c-19.9,11.6-39.8,23.2-59.7,34.8c-4.8,2.8-9.8,5.5-14.5,8.4c-2.4,1.5-4.2,1.4-6.6,0
		c-18.6-11-37.3-21.8-56-32.7c-14.7-8.5-29.4-17-44-25.5c-13.1-7.6-26.3-15.3-39.4-22.9C559.7,441.3,558.9,440.8,557.8,440.1z"/>
	<path class="st0" d="M637.2,479c-0.6-5.6-0.5-73,0.1-76.8c5.4-3.1,10.9-6.3,16.4-9.5c15-8.6,29.9-17.2,44.9-25.8
		c0.4-0.2,0.8-0.5,1.2-0.8c1.8-1.3,3.5-1.1,5.4,0c6.5,3.8,13,7.5,19.5,11.3c13.4,7.8,26.8,15.5,40.3,23.3c1,0.6,1.9,1.2,2.7,1.7
		c0.6,4.1,0.7,72.1,0,76.7c-1.5,1-3.3,2.1-5.1,3.1c-18.4,10.6-36.8,21.2-55.3,31.8c-0.4,0.2-0.9,0.4-1.2,0.7c-2.5,1.9-4.8,1.5-7.5,0
		c-19.1-11.1-38.2-22.1-57.3-33.1C640.1,480.8,638.7,479.9,637.2,479z M654.9,447.5c2.1,0.6,4,0.4,5.9,0.4c22.9,0,45.7,0,68.6,0
		c1.9,0,3.8-0.3,5.7,0.5c1.4,2.4,0.6,5,0.8,7.5c0.2,2.7-0.8,4.4-3.2,5.8c-9.1,5-18.1,10.2-27,15.5c-2.5,1.5-4.3,1.2-6.6-0.1
		c-8.4-5-16.9-9.8-25.4-14.6c-1.4-0.8-2.8-1.4-3.9-2c-7.2,3.4-11.6,6.1-13.8,8.6c15.5,9,31,17.9,46.2,26.7c0.7-0.2,1-0.3,1.3-0.5
		c14.8-8.5,29.6-17.1,44.5-25.5c1.9-1.1,2.6-2.6,2.6-4.7c-0.1-9.4,0-18.9-0.1-28.3c0-0.9-0.4-1.8-0.6-3c-2.1-0.1-4-0.2-5.8-0.2
		c-22.6,0-45.1,0-67.7,0c-1.6,0-3.2,0-4.8-0.1c-1.6-0.1-2.3-0.8-2.4-2.5c-0.1-2.2,0-4.5-0.1-6.7c-0.1-2,0.9-3.3,2.6-4.2
		c9.3-5.3,18.6-10.7,27.8-16.1c2.2-1.3,4.1-1.2,6.2,0.1c4.2,2.6,8.6,5,12.9,7.5c5.5,3.2,11,6.4,16.6,9.6c4.7-2.7,9.4-4.9,14.1-8.5
		c-8-4.9-15.7-9.3-23.5-13.7c-7.8-4.4-15.4-9-23.1-13.1c-5.7,2.4-44.8,25.1-48.2,28.1c0,10.2,0,20.8,0,31.3
		C654.6,445.9,654.8,446.7,654.9,447.5z"/>
</g>
</svg>
